<?xml version="1.0" encoding="UTF-8"?>
<!DOCTYPE svg PUBLIC "-//W3C//DTD SVG 1.1//EN" "http://www.w3.org/Graphics/SVG/1.1/DTD/svg11.dtd">
<!-- Creator: CorelDRAW -->
<svg xmlns="http://www.w3.org/2000/svg" xml:space="preserve" width="1.14667in" height="1.44681in" version="1.1" style="shape-rendering:geometricPrecision; text-rendering:geometricPrecision; image-rendering:optimizeQuality; fill-rule:evenodd; clip-rule:evenodd"
viewBox="0 0 1146.67 1446.81"
 xmlns:xlink="http://www.w3.org/1999/xlink"
 xmlns:xodm="http://www.corel.com/coreldraw/odm/2003">
 <defs>
  <style type="text/css">
   <![CDATA[
    .fil0 {fill:#fff}
   ]]>
  </style>
 </defs>
 <g id="Layer_x0020_1">
  <metadata id="CorelCorpID_0Corel-Layer"/>
  <path class="fil0" d="M1067.59 417.91c2.65,44.23 -4.29,112.48 -10.22,156 -7.45,54.68 -33.37,146.97 -90.2,164.56 -22.9,7.09 -50.9,5.89 -74.01,-0.14 -46.09,-12.01 -76.36,-31.69 -97.93,-71.68 -46.14,4.22 -68.78,4.89 -112.95,-5.11 -53.2,-12.06 -67.43,-35.3 -84.14,-43.91 -9.8,4.05 -55.86,50.73 -129.77,68.31 -27.22,6.47 -56.13,12.18 -85.73,7.8 -24.6,-3.64 -49.28,-24.65 -54.83,-43.26 64.09,4.12 127.03,2.14 186.8,-30.83 49.95,-27.55 91.23,-83.05 85.24,-140.16 -24.7,-17.93 -57.34,-19.12 -93.93,-25.44 -50.01,-8.63 -152.21,-28.11 -197.84,-41.83 -83.32,-25.05 -213.33,-88.89 -278.68,-12.21 -36.18,42.45 -29.84,154.69 -27.31,210.97 6.34,141.22 50.52,276.44 115.57,366.11 14.39,19.83 38.49,49.15 54.46,65.38 20.24,20.57 40.27,41.29 62.17,59.59 26.77,22.37 54.68,45.11 83.74,65.65 14.18,10.02 46.79,29.67 54.85,37.15 -2.25,6.95 -9.22,18.1 -13.31,25.2 -4.81,8.35 -9.06,17.65 -12.75,27.81 -22.35,61.55 -40.98,142.62 29.06,172.96 26.8,11.62 115.3,7.64 151.25,9 53.43,2.02 106.13,1.93 159.56,3.47 52.04,1.5 104.66,3.59 156.77,3.48 64.33,-0.14 94.98,-33.19 105.8,-93.7 12.4,-69.37 34.38,-182.02 42.02,-241.91 42.95,-8.13 75.57,-38.14 91.43,-69.15 19,-37.13 17.99,-94.07 21.91,-139.86 8.53,-99.55 18.56,-199.37 26.74,-298.6 4.06,-49.19 8.4,-98.03 13.16,-147.15 6.35,-65.56 0.56,-56.75 -42.81,-112.93l-64.17 -77.85c-22.7,-26.82 -24.96,-30.65 -62.52,-39 -16.62,-3.69 -53.16,-12.39 -68.85,-12.7 -26.38,38.31 -52.52,158.13 -63.32,206.36 -13.05,58.27 -15.13,126.26 -12.89,186.96 0.86,23.21 2.38,40.26 14.69,54.16 14.37,16.24 62.79,42.51 98.35,36.33 44.72,-7.78 91.02,-125.46 101.76,-167.68 7.82,-30.72 20.46,-80.59 22.85,-112.19zm-357.93 -323.59c-9.47,3.53 -3.93,5.87 -8.91,16.18 -10.47,21.67 -13.58,21.58 -22.54,51.23 -8,26.48 -14.91,47.1 -21.39,76.3 -8.13,36.61 -21.84,136.6 -23.05,173.67 -1.17,35.87 -4.99,163.04 12.26,184.56 15.45,19.27 87.51,30.77 119.63,27.08 11.1,-1.28 31.46,-3.76 34.45,-15.15l9.41 -88.9c2.44,-26.8 6.98,-59.11 12.09,-85.05 11.04,-56.11 23.19,-104.3 40.46,-156.93 7.94,-24.21 17.31,-48.07 24.78,-72.98 11.93,-39.76 -12.69,-40.4 -41.2,-53 -18.86,-8.33 -124.24,-61.39 -135.99,-57zm-279.8 301.24l136.03 24.41c13.46,2.84 29.93,8.33 42.17,9.11 5.63,-42.31 10.14,-82.94 15.86,-124.33 6.09,-44.15 25.15,-126.92 35.23,-176.85 3.69,-18.29 12.33,-43.16 -2.87,-56.52l-97.21 -44.77c-16.05,-7.98 -31.65,-14.62 -47.24,-22.85 -12.82,-6.76 -15.37,-3.04 -27.94,0.59 -14.76,4.26 -11.13,4.63 -16.11,18.79 -13.22,37.55 -23.61,68 -31.62,110.22 -12.96,68.33 -19.77,194.72 -6.3,262.2zm-218.69 -65.17c42.7,18.14 83.04,32.72 129.49,43.81 12.8,3.06 35.98,7.36 47.17,11.5l-0.22 -56.93c-0.68,-69.16 5.72,-173.79 23.77,-242.17 2.03,-7.69 6.5,-23.56 6.99,-29.96 -37.66,-9.89 -72.42,-11.35 -112.01,-14.87 -9.92,-0.88 -21.15,-1.67 -31.08,-1.61 -14.79,0.09 -16.23,1.37 -20.49,13.44 -18.19,51.46 -46.43,227.25 -43.62,276.76z"/>
 </g>
</svg>


