<?xml version="1.0" encoding="UTF-8"?>
<svg version="1.1" xmlns="http://www.w3.org/2000/svg" width="359" height="197">
<path d="M0 0 C0.81742676 0.18191895 1.63485352 0.36383789 2.47705078 0.55126953 C11.0833577 2.53488589 19.17589102 5.29978659 27.25 8.875 C28.00039551 9.20725586 28.75079102 9.53951172 29.52392578 9.88183594 C33.0879638 11.5094576 36.45540142 13.22732079 39.75 15.3515625 C43.08567196 17.44888809 46.11761527 19.09532253 50 20 C53.83044618 18.75213388 56.83776415 16.81136532 60.11328125 14.5390625 C71.738637 6.53731279 87.36439292 2.27711842 101 -1 C101.6712793 -1.16371094 102.34255859 -1.32742188 103.03417969 -1.49609375 C129.56500442 -7.60790678 162.69166617 -7.09879129 187 6 C198.93845101 13.52484185 206.6637257 23.75633576 209.8125 37.5625 C209.9053125 39.2640625 209.9053125 39.2640625 210 41 C210.05027344 41.74894531 210.10054688 42.49789062 210.15234375 43.26953125 C211.33107075 74.71796762 193.02248764 100.59204975 173.43261719 123.32910156 C172.00929423 124.9891599 170.60067069 126.66065665 169.1953125 128.3359375 C163.64130121 134.9282414 157.89297492 141.26736348 151.9375 147.5 C144.04417315 155.7914817 136.77893765 164.39214232 130.3515625 173.875 C129.91440918 174.51284424 129.47725586 175.15068848 129.02685547 175.80786133 C128.20476129 177.01805313 127.39772939 178.23868658 126.60986328 179.47143555 C123.58074666 183.95334541 120.98297 185.34850137 116 187 C110.02669667 187.76023861 105.92555494 186.20781939 101 183 C94.40488321 177.12174373 94.40488321 177.12174373 93.59375 172.87109375 C93.07634327 159.44007737 104.01402752 149.40584266 112.5625 140.09765625 C118.86434767 133.30363982 125.29443698 126.66412891 131.87890625 120.14453125 C135.08850036 116.89947202 138.0485117 113.47875624 141 110 C141.84433594 109.03320312 142.68867188 108.06640625 143.55859375 107.0703125 C149.94346577 99.71660848 155.66758121 92.15485138 161 84 C161.5775 83.12472656 162.155 82.24945313 162.75 81.34765625 C169.12174326 71.26437255 173.25083532 60.04848727 172 48 C170.67854119 42.93738417 168.18183223 39.7764396 164 36.6875 C154.39394969 31.07553891 143.89812448 30.46991442 133 30.5625 C131.73051514 30.57079834 130.46103027 30.57909668 129.15307617 30.58764648 C91.94819854 31.24886782 60.15307558 49.72327305 33 74 C32.47003418 74.47356934 31.94006836 74.94713867 31.39404297 75.43505859 C27.88949169 78.58185139 24.43278815 81.77510597 21 85 C20.34386719 85.61359375 19.68773437 86.2271875 19.01171875 86.859375 C14.70236269 91.02013258 10.98891348 95.60097315 7.23828125 100.265625 C5.30558026 102.62669078 3.3155385 104.88117292 1.25 107.125 C-13.1059367 123.12973735 -25.36001381 141.41129008 -37.1875 159.3125 C-46.14744557 172.83686597 -46.14744557 172.83686597 -50.625 178.8125 C-51.69621094 180.24529297 -51.69621094 180.24529297 -52.7890625 181.70703125 C-55.83268261 184.8635772 -58.88256176 186.80294568 -63.30859375 187.21484375 C-71.85778173 186.10109633 -76.82334014 182.53516517 -82.71484375 176.48828125 C-84.68582327 172.67212941 -84.61028708 169.20641587 -84 165 C-83.07552646 162.27564837 -81.75533043 159.94406374 -80.25 157.5 C-79.85095459 156.82348389 -79.45190918 156.14696777 -79.04077148 155.44995117 C-63.21860982 129.15417687 -42.65972428 104.9316452 -22.0546875 82.2734375 C-20.13063862 80.14454691 -18.24854188 77.98580858 -16.375 75.8125 C-13.60896221 72.63123713 -10.68936678 69.66432944 -7.6796875 66.71484375 C-6.04072708 65.04157951 -4.55147639 63.30689297 -3.0625 61.5 C2.20845249 55.2529452 8.70209757 50.36223561 15.21484375 45.48046875 C17.11400327 44.10781932 17.11400327 44.10781932 18 42 C17.15050781 41.73058594 16.30101562 41.46117187 15.42578125 41.18359375 C10.74512341 39.56644515 6.25879995 37.53580879 1.73046875 35.53515625 C-11.28992746 30.81207135 -25.19592492 30.48681715 -38.875 30.625 C-39.70861053 30.62998505 -40.54222107 30.63497009 -41.40109253 30.6401062 C-53.44787088 30.72451691 -65.2910539 30.88193004 -77 34 C-77.76779785 34.19916016 -78.5355957 34.39832031 -79.32666016 34.60351562 C-95.19075249 38.90327761 -109.71682592 46.35139077 -124.33056641 53.71240234 C-128.88140187 55.90749163 -132.98002787 56.6791727 -138 56 C-142.85649157 53.3510046 -145.31386173 49.1490674 -147 44 C-147.62284369 39.84770875 -147.47707793 36.33581822 -146.0625 32.375 C-129.1861661 12.94164581 -99.33504678 3.80922411 -75 -1 C-74.21786133 -1.16371094 -73.43572266 -1.32742188 -72.62988281 -1.49609375 C-48.80509834 -6.3718636 -23.62574648 -5.33937483 0 0 Z " fill="#000000" transform="translate(147,9)"/>
</svg>
